<svg width="229" height="229" viewBox="0 0 229 229" fill="none" xmlns="http://www.w3.org/2000/svg">
<path opacity="0.5" d="M228.944 1.54704L172.915 210.871C172.63 211.821 171.491 212.106 170.826 211.441L133.315 173.909L161.424 69.0096C161.709 68.0594 160.855 67.2042 159.905 67.4893L55.0638 95.6145L17.7427 58.2726C17.0779 57.6075 17.3628 56.4672 18.3124 56.1822L227.425 0.0267582C228.374 -0.163277 229.229 0.691882 228.944 1.54704Z" fill="#00B37E"/>
<path opacity="0.5" d="M133.313 173.907L118.878 228.067C118.593 229.018 117.454 229.303 116.789 228.638L0.362288 112.241C-0.302465 111.576 -0.0175725 110.436 0.932075 110.151L55.062 95.6128L133.313 173.907Z" fill="#00B37E"/>
<path d="M161.42 69.0079L133.311 173.907L55.0598 95.6129L159.901 67.4876C160.851 67.2026 161.705 68.0577 161.42 69.0079Z" fill="#00B37E"/>
</svg>
